<mxfile host="app.diagrams.net" modified="2023-11-28T19:56:55.139Z" agent="Mozilla/5.0 (Windows NT 10.0; Win64; x64; rv:120.0) Gecko/20100101 Firefox/120.0" etag="dtciS6RepMnKz2xg22-H" version="22.1.4" type="github">
  <diagram name="Page-1" id="F1FoJTrAIM6n6KeIMB_y">
    <mxGraphModel dx="385" dy="624" grid="1" gridSize="10" guides="1" tooltips="1" connect="1" arrows="1" fold="1" page="1" pageScale="1" pageWidth="850" pageHeight="1100" math="0" shadow="0">
      <root>
        <mxCell id="0" />
        <mxCell id="1" parent="0" />
        <mxCell id="YMwNeHdUEHDjdkbAeV3h-63" style="edgeStyle=orthogonalEdgeStyle;orthogonalLoop=1;jettySize=auto;html=1;exitX=0;exitY=0.25;exitDx=0;exitDy=0;entryX=0.5;entryY=1;entryDx=0;entryDy=0;curved=1;" edge="1" parent="1" source="YMwNeHdUEHDjdkbAeV3h-44" target="YMwNeHdUEHDjdkbAeV3h-28">
          <mxGeometry relative="1" as="geometry" />
        </mxCell>
        <mxCell id="YMwNeHdUEHDjdkbAeV3h-1" value="&lt;&lt;Interface&gt;&gt;&#xa;CommandInterface" style="swimlane;fontStyle=1;align=center;verticalAlign=top;childLayout=stackLayout;horizontal=1;startSize=43.94999885559082;horizontalStack=0;resizeParent=1;resizeParentMax=0;resizeLast=0;collapsible=0;marginBottom=0;" vertex="1" parent="1">
          <mxGeometry x="1726" y="20" width="216" height="109.94999885559082" as="geometry" />
        </mxCell>
        <mxCell id="YMwNeHdUEHDjdkbAeV3h-2" style="line;strokeWidth=1;fillColor=none;align=left;verticalAlign=middle;spacingTop=-1;spacingLeft=3;spacingRight=3;rotatable=0;labelPosition=right;points=[];portConstraint=eastwest;strokeColor=inherit;" vertex="1" parent="YMwNeHdUEHDjdkbAeV3h-1">
          <mxGeometry y="43.94999885559082" width="216" height="8" as="geometry" />
        </mxCell>
        <mxCell id="YMwNeHdUEHDjdkbAeV3h-3" value="public void doCommand();" style="text;strokeColor=none;fillColor=none;align=left;verticalAlign=top;spacingLeft=4;spacingRight=4;overflow=hidden;rotatable=0;points=[[0,0.5],[1,0.5]];portConstraint=eastwest;" vertex="1" parent="YMwNeHdUEHDjdkbAeV3h-1">
          <mxGeometry y="51.94999885559082" width="216" height="29" as="geometry" />
        </mxCell>
        <mxCell id="YMwNeHdUEHDjdkbAeV3h-4" value="public void undoCommand();" style="text;strokeColor=none;fillColor=none;align=left;verticalAlign=top;spacingLeft=4;spacingRight=4;overflow=hidden;rotatable=0;points=[[0,0.5],[1,0.5]];portConstraint=eastwest;" vertex="1" parent="YMwNeHdUEHDjdkbAeV3h-1">
          <mxGeometry y="80.94999885559082" width="216" height="29" as="geometry" />
        </mxCell>
        <mxCell id="YMwNeHdUEHDjdkbAeV3h-5" value="Command" style="swimlane;fontStyle=1;align=center;verticalAlign=top;childLayout=stackLayout;horizontal=1;startSize=26.390476771763392;horizontalStack=0;resizeParent=1;resizeParentMax=0;resizeLast=0;collapsible=0;marginBottom=0;" vertex="1" parent="1">
          <mxGeometry x="2076" y="319" width="275" height="190.3904767717634" as="geometry" />
        </mxCell>
        <mxCell id="YMwNeHdUEHDjdkbAeV3h-6" value="Commands:" style="text;strokeColor=none;fillColor=none;align=left;verticalAlign=top;spacingLeft=4;spacingRight=4;overflow=hidden;rotatable=0;points=[[0,0.5],[1,0.5]];portConstraint=eastwest;" vertex="1" parent="YMwNeHdUEHDjdkbAeV3h-5">
          <mxGeometry y="26.390476771763392" width="275" height="26" as="geometry" />
        </mxCell>
        <mxCell id="YMwNeHdUEHDjdkbAeV3h-7" value="Discard, Draw" style="text;strokeColor=none;fillColor=none;align=left;verticalAlign=top;spacingLeft=4;spacingRight=4;overflow=hidden;rotatable=0;points=[[0,0.5],[1,0.5]];portConstraint=eastwest;" vertex="1" parent="YMwNeHdUEHDjdkbAeV3h-5">
          <mxGeometry y="52.39047677176339" width="275" height="26" as="geometry" />
        </mxCell>
        <mxCell id="YMwNeHdUEHDjdkbAeV3h-8" value="Damage, Heal" style="text;strokeColor=none;fillColor=none;align=left;verticalAlign=top;spacingLeft=4;spacingRight=4;overflow=hidden;rotatable=0;points=[[0,0.5],[1,0.5]];portConstraint=eastwest;" vertex="1" parent="YMwNeHdUEHDjdkbAeV3h-5">
          <mxGeometry y="78.39047677176339" width="275" height="26" as="geometry" />
        </mxCell>
        <mxCell id="YMwNeHdUEHDjdkbAeV3h-9" value="UseEnergy, SelectCard, SelectTarget" style="text;strokeColor=none;fillColor=none;align=left;verticalAlign=top;spacingLeft=4;spacingRight=4;overflow=hidden;rotatable=0;points=[[0,0.5],[1,0.5]];portConstraint=eastwest;" vertex="1" parent="YMwNeHdUEHDjdkbAeV3h-5">
          <mxGeometry y="104.39047677176339" width="275" height="26" as="geometry" />
        </mxCell>
        <mxCell id="YMwNeHdUEHDjdkbAeV3h-10" style="line;strokeWidth=1;fillColor=none;align=left;verticalAlign=middle;spacingTop=-1;spacingLeft=3;spacingRight=3;rotatable=0;labelPosition=right;points=[];portConstraint=eastwest;strokeColor=inherit;" vertex="1" parent="YMwNeHdUEHDjdkbAeV3h-5">
          <mxGeometry y="130.3904767717634" width="275" height="8" as="geometry" />
        </mxCell>
        <mxCell id="YMwNeHdUEHDjdkbAeV3h-11" value="public void doCommand();" style="text;strokeColor=none;fillColor=none;align=left;verticalAlign=top;spacingLeft=4;spacingRight=4;overflow=hidden;rotatable=0;points=[[0,0.5],[1,0.5]];portConstraint=eastwest;" vertex="1" parent="YMwNeHdUEHDjdkbAeV3h-5">
          <mxGeometry y="138.3904767717634" width="275" height="26" as="geometry" />
        </mxCell>
        <mxCell id="YMwNeHdUEHDjdkbAeV3h-12" value="public void undoCommand();" style="text;strokeColor=none;fillColor=none;align=left;verticalAlign=top;spacingLeft=4;spacingRight=4;overflow=hidden;rotatable=0;points=[[0,0.5],[1,0.5]];portConstraint=eastwest;" vertex="1" parent="YMwNeHdUEHDjdkbAeV3h-5">
          <mxGeometry y="164.3904767717634" width="275" height="26" as="geometry" />
        </mxCell>
        <mxCell id="YMwNeHdUEHDjdkbAeV3h-13" value="&lt;&lt;Interface&gt;&gt;&#xa;CardStrategyInterface" style="swimlane;fontStyle=1;align=center;verticalAlign=top;childLayout=stackLayout;horizontal=1;startSize=47.333335876464844;horizontalStack=0;resizeParent=1;resizeParentMax=0;resizeLast=0;collapsible=0;marginBottom=0;" vertex="1" parent="1">
          <mxGeometry x="1413" y="80" width="179" height="87.33333587646484" as="geometry" />
        </mxCell>
        <mxCell id="YMwNeHdUEHDjdkbAeV3h-14" style="line;strokeWidth=1;fillColor=none;align=left;verticalAlign=middle;spacingTop=-1;spacingLeft=3;spacingRight=3;rotatable=0;labelPosition=right;points=[];portConstraint=eastwest;strokeColor=inherit;" vertex="1" parent="YMwNeHdUEHDjdkbAeV3h-13">
          <mxGeometry y="47.333335876464844" width="179" height="8" as="geometry" />
        </mxCell>
        <mxCell id="YMwNeHdUEHDjdkbAeV3h-15" value="public void doEffect();" style="text;strokeColor=none;fillColor=none;align=left;verticalAlign=top;spacingLeft=4;spacingRight=4;overflow=hidden;rotatable=0;points=[[0,0.5],[1,0.5]];portConstraint=eastwest;" vertex="1" parent="YMwNeHdUEHDjdkbAeV3h-13">
          <mxGeometry y="55.333335876464844" width="179" height="32" as="geometry" />
        </mxCell>
        <mxCell id="YMwNeHdUEHDjdkbAeV3h-16" value="CardStrategy" style="swimlane;fontStyle=1;align=center;verticalAlign=top;childLayout=stackLayout;horizontal=1;startSize=27.960000610351564;horizontalStack=0;resizeParent=1;resizeParentMax=0;resizeLast=0;collapsible=0;marginBottom=0;" vertex="1" parent="1">
          <mxGeometry x="1727" y="195" width="214" height="147.96000061035156" as="geometry" />
        </mxCell>
        <mxCell id="YMwNeHdUEHDjdkbAeV3h-17" value="Strategies:" style="text;strokeColor=none;fillColor=none;align=left;verticalAlign=top;spacingLeft=4;spacingRight=4;overflow=hidden;rotatable=0;points=[[0,0.5],[1,0.5]];portConstraint=eastwest;" vertex="1" parent="YMwNeHdUEHDjdkbAeV3h-16">
          <mxGeometry y="27.960000610351564" width="214" height="28" as="geometry" />
        </mxCell>
        <mxCell id="YMwNeHdUEHDjdkbAeV3h-18" value="Discard, Draw" style="text;strokeColor=none;fillColor=none;align=left;verticalAlign=top;spacingLeft=4;spacingRight=4;overflow=hidden;rotatable=0;points=[[0,0.5],[1,0.5]];portConstraint=eastwest;" vertex="1" parent="YMwNeHdUEHDjdkbAeV3h-16">
          <mxGeometry y="55.960000610351564" width="214" height="28" as="geometry" />
        </mxCell>
        <mxCell id="YMwNeHdUEHDjdkbAeV3h-19" value="Damage, Heal, DamageHeal" style="text;strokeColor=none;fillColor=none;align=left;verticalAlign=top;spacingLeft=4;spacingRight=4;overflow=hidden;rotatable=0;points=[[0,0.5],[1,0.5]];portConstraint=eastwest;" vertex="1" parent="YMwNeHdUEHDjdkbAeV3h-16">
          <mxGeometry y="83.96000061035156" width="214" height="28" as="geometry" />
        </mxCell>
        <mxCell id="YMwNeHdUEHDjdkbAeV3h-20" style="line;strokeWidth=1;fillColor=none;align=left;verticalAlign=middle;spacingTop=-1;spacingLeft=3;spacingRight=3;rotatable=0;labelPosition=right;points=[];portConstraint=eastwest;strokeColor=inherit;" vertex="1" parent="YMwNeHdUEHDjdkbAeV3h-16">
          <mxGeometry y="111.96000061035156" width="214" height="8" as="geometry" />
        </mxCell>
        <mxCell id="YMwNeHdUEHDjdkbAeV3h-21" value="public void doEffect();" style="text;strokeColor=none;fillColor=none;align=left;verticalAlign=top;spacingLeft=4;spacingRight=4;overflow=hidden;rotatable=0;points=[[0,0.5],[1,0.5]];portConstraint=eastwest;" vertex="1" parent="YMwNeHdUEHDjdkbAeV3h-16">
          <mxGeometry y="119.96000061035156" width="214" height="28" as="geometry" />
        </mxCell>
        <mxCell id="YMwNeHdUEHDjdkbAeV3h-22" value="Card" style="swimlane;fontStyle=1;align=center;verticalAlign=top;childLayout=stackLayout;horizontal=1;startSize=27.926666259765625;horizontalStack=0;resizeParent=1;resizeParentMax=0;resizeLast=0;collapsible=0;marginBottom=0;" vertex="1" parent="1">
          <mxGeometry x="1450" y="240" width="138" height="147.92666625976562" as="geometry" />
        </mxCell>
        <mxCell id="YMwNeHdUEHDjdkbAeV3h-23" value="String name" style="text;strokeColor=none;fillColor=none;align=left;verticalAlign=top;spacingLeft=4;spacingRight=4;overflow=hidden;rotatable=0;points=[[0,0.5],[1,0.5]];portConstraint=eastwest;" vertex="1" parent="YMwNeHdUEHDjdkbAeV3h-22">
          <mxGeometry y="27.926666259765625" width="138" height="28" as="geometry" />
        </mxCell>
        <mxCell id="YMwNeHdUEHDjdkbAeV3h-24" value="int cost" style="text;strokeColor=none;fillColor=none;align=left;verticalAlign=top;spacingLeft=4;spacingRight=4;overflow=hidden;rotatable=0;points=[[0,0.5],[1,0.5]];portConstraint=eastwest;" vertex="1" parent="YMwNeHdUEHDjdkbAeV3h-22">
          <mxGeometry y="55.926666259765625" width="138" height="28" as="geometry" />
        </mxCell>
        <mxCell id="YMwNeHdUEHDjdkbAeV3h-25" value="Strategy strategy" style="text;strokeColor=none;fillColor=none;align=left;verticalAlign=top;spacingLeft=4;spacingRight=4;overflow=hidden;rotatable=0;points=[[0,0.5],[1,0.5]];portConstraint=eastwest;" vertex="1" parent="YMwNeHdUEHDjdkbAeV3h-22">
          <mxGeometry y="83.92666625976562" width="138" height="28" as="geometry" />
        </mxCell>
        <mxCell id="YMwNeHdUEHDjdkbAeV3h-26" style="line;strokeWidth=1;fillColor=none;align=left;verticalAlign=middle;spacingTop=-1;spacingLeft=3;spacingRight=3;rotatable=0;labelPosition=right;points=[];portConstraint=eastwest;strokeColor=inherit;" vertex="1" parent="YMwNeHdUEHDjdkbAeV3h-22">
          <mxGeometry y="111.92666625976562" width="138" height="8" as="geometry" />
        </mxCell>
        <mxCell id="YMwNeHdUEHDjdkbAeV3h-27" value="doEffect()" style="text;strokeColor=none;fillColor=none;align=left;verticalAlign=top;spacingLeft=4;spacingRight=4;overflow=hidden;rotatable=0;points=[[0,0.5],[1,0.5]];portConstraint=eastwest;" vertex="1" parent="YMwNeHdUEHDjdkbAeV3h-22">
          <mxGeometry y="119.92666625976562" width="138" height="28" as="geometry" />
        </mxCell>
        <mxCell id="YMwNeHdUEHDjdkbAeV3h-28" value="Stack" style="swimlane;fontStyle=1;align=center;verticalAlign=top;childLayout=stackLayout;horizontal=1;startSize=28.786666870117188;horizontalStack=0;resizeParent=1;resizeParentMax=0;resizeLast=0;collapsible=0;marginBottom=0;" vertex="1" parent="1">
          <mxGeometry x="1630" y="409.99999999999994" width="121" height="71.78666687011719" as="geometry" />
        </mxCell>
        <mxCell id="YMwNeHdUEHDjdkbAeV3h-29" value="ArrayList cards" style="text;strokeColor=none;fillColor=none;align=left;verticalAlign=top;spacingLeft=4;spacingRight=4;overflow=hidden;rotatable=0;points=[[0,0.5],[1,0.5]];portConstraint=eastwest;" vertex="1" parent="YMwNeHdUEHDjdkbAeV3h-28">
          <mxGeometry y="28.786666870117188" width="121" height="29" as="geometry" />
        </mxCell>
        <mxCell id="YMwNeHdUEHDjdkbAeV3h-30" style="line;strokeWidth=1;fillColor=none;align=left;verticalAlign=middle;spacingTop=-1;spacingLeft=3;spacingRight=3;rotatable=0;labelPosition=right;points=[];portConstraint=eastwest;strokeColor=inherit;" vertex="1" parent="YMwNeHdUEHDjdkbAeV3h-28">
          <mxGeometry y="57.78666687011719" width="121" height="14" as="geometry" />
        </mxCell>
        <mxCell id="YMwNeHdUEHDjdkbAeV3h-31" value="CardPool" style="swimlane;fontStyle=1;align=center;verticalAlign=top;childLayout=stackLayout;horizontal=1;startSize=28.786666870117188;horizontalStack=0;resizeParent=1;resizeParentMax=0;resizeLast=0;collapsible=0;marginBottom=0;" vertex="1" parent="1">
          <mxGeometry x="1230" y="330" width="121" height="71.78666687011719" as="geometry" />
        </mxCell>
        <mxCell id="YMwNeHdUEHDjdkbAeV3h-32" value="ArrayList cards" style="text;strokeColor=none;fillColor=none;align=left;verticalAlign=top;spacingLeft=4;spacingRight=4;overflow=hidden;rotatable=0;points=[[0,0.5],[1,0.5]];portConstraint=eastwest;" vertex="1" parent="YMwNeHdUEHDjdkbAeV3h-31">
          <mxGeometry y="28.786666870117188" width="121" height="29" as="geometry" />
        </mxCell>
        <mxCell id="YMwNeHdUEHDjdkbAeV3h-33" style="line;strokeWidth=1;fillColor=none;align=left;verticalAlign=middle;spacingTop=-1;spacingLeft=3;spacingRight=3;rotatable=0;labelPosition=right;points=[];portConstraint=eastwest;strokeColor=inherit;" vertex="1" parent="YMwNeHdUEHDjdkbAeV3h-31">
          <mxGeometry y="57.78666687011719" width="121" height="14" as="geometry" />
        </mxCell>
        <mxCell id="YMwNeHdUEHDjdkbAeV3h-34" value="Deck" style="swimlane;fontStyle=1;align=center;verticalAlign=top;childLayout=stackLayout;horizontal=1;startSize=28.786666870117188;horizontalStack=0;resizeParent=1;resizeParentMax=0;resizeLast=0;collapsible=0;marginBottom=0;" vertex="1" parent="1">
          <mxGeometry x="1230" y="437.6" width="121" height="71.78666687011719" as="geometry" />
        </mxCell>
        <mxCell id="YMwNeHdUEHDjdkbAeV3h-35" value="ArrayList cards" style="text;strokeColor=none;fillColor=none;align=left;verticalAlign=top;spacingLeft=4;spacingRight=4;overflow=hidden;rotatable=0;points=[[0,0.5],[1,0.5]];portConstraint=eastwest;" vertex="1" parent="YMwNeHdUEHDjdkbAeV3h-34">
          <mxGeometry y="28.786666870117188" width="121" height="29" as="geometry" />
        </mxCell>
        <mxCell id="YMwNeHdUEHDjdkbAeV3h-36" style="line;strokeWidth=1;fillColor=none;align=left;verticalAlign=middle;spacingTop=-1;spacingLeft=3;spacingRight=3;rotatable=0;labelPosition=right;points=[];portConstraint=eastwest;strokeColor=inherit;" vertex="1" parent="YMwNeHdUEHDjdkbAeV3h-34">
          <mxGeometry y="57.78666687011719" width="121" height="14" as="geometry" />
        </mxCell>
        <mxCell id="YMwNeHdUEHDjdkbAeV3h-37" value="Hand" style="swimlane;fontStyle=1;align=center;verticalAlign=top;childLayout=stackLayout;horizontal=1;startSize=28.786666870117188;horizontalStack=0;resizeParent=1;resizeParentMax=0;resizeLast=0;collapsible=0;marginBottom=0;flipH=0;" vertex="1" parent="1">
          <mxGeometry x="1450" y="542.18" width="121" height="71.78666687011719" as="geometry" />
        </mxCell>
        <mxCell id="YMwNeHdUEHDjdkbAeV3h-38" value="ArrayList cards" style="text;strokeColor=none;fillColor=none;align=left;verticalAlign=top;spacingLeft=4;spacingRight=4;overflow=hidden;rotatable=0;points=[[0,0.5],[1,0.5]];portConstraint=eastwest;" vertex="1" parent="YMwNeHdUEHDjdkbAeV3h-37">
          <mxGeometry y="28.786666870117188" width="121" height="29" as="geometry" />
        </mxCell>
        <mxCell id="YMwNeHdUEHDjdkbAeV3h-39" style="line;strokeWidth=1;fillColor=none;align=left;verticalAlign=middle;spacingTop=-1;spacingLeft=3;spacingRight=3;rotatable=0;labelPosition=right;points=[];portConstraint=eastwest;strokeColor=inherit;" vertex="1" parent="YMwNeHdUEHDjdkbAeV3h-37">
          <mxGeometry y="57.78666687011719" width="121" height="14" as="geometry" />
        </mxCell>
        <mxCell id="YMwNeHdUEHDjdkbAeV3h-40" value="Player" style="swimlane;fontStyle=1;align=center;verticalAlign=top;childLayout=stackLayout;horizontal=1;startSize=26.961905343191965;horizontalStack=0;resizeParent=1;resizeParentMax=0;resizeLast=0;collapsible=0;marginBottom=0;flipH=0;" vertex="1" parent="1">
          <mxGeometry x="1670" y="519.9999999999999" width="91" height="93.96190534319197" as="geometry" />
        </mxCell>
        <mxCell id="YMwNeHdUEHDjdkbAeV3h-42" value="Deck deck" style="text;strokeColor=none;fillColor=none;align=left;verticalAlign=top;spacingLeft=4;spacingRight=4;overflow=hidden;rotatable=0;points=[[0,0.5],[1,0.5]];portConstraint=eastwest;" vertex="1" parent="YMwNeHdUEHDjdkbAeV3h-40">
          <mxGeometry y="26.961905343191965" width="91" height="27" as="geometry" />
        </mxCell>
        <mxCell id="YMwNeHdUEHDjdkbAeV3h-41" value="Hand hand" style="text;strokeColor=none;fillColor=none;align=left;verticalAlign=top;spacingLeft=4;spacingRight=4;overflow=hidden;rotatable=0;points=[[0,0.5],[1,0.5]];portConstraint=eastwest;" vertex="1" parent="YMwNeHdUEHDjdkbAeV3h-40">
          <mxGeometry y="53.961905343191965" width="91" height="27" as="geometry" />
        </mxCell>
        <mxCell id="YMwNeHdUEHDjdkbAeV3h-43" style="line;strokeWidth=1;fillColor=none;align=left;verticalAlign=middle;spacingTop=-1;spacingLeft=3;spacingRight=3;rotatable=0;labelPosition=right;points=[];portConstraint=eastwest;strokeColor=inherit;" vertex="1" parent="YMwNeHdUEHDjdkbAeV3h-40">
          <mxGeometry y="80.96190534319197" width="91" height="13" as="geometry" />
        </mxCell>
        <mxCell id="YMwNeHdUEHDjdkbAeV3h-44" value="Game" style="swimlane;fontStyle=1;align=center;verticalAlign=top;childLayout=stackLayout;horizontal=1;startSize=28.786666870117188;horizontalStack=0;resizeParent=1;resizeParentMax=0;resizeLast=0;collapsible=0;marginBottom=0;flipH=0;" vertex="1" parent="1">
          <mxGeometry x="1820" y="448.21" width="135" height="71.78666687011719" as="geometry" />
        </mxCell>
        <mxCell id="YMwNeHdUEHDjdkbAeV3h-45" value="ArrayList players" style="text;strokeColor=none;fillColor=none;align=left;verticalAlign=top;spacingLeft=4;spacingRight=4;overflow=hidden;rotatable=0;points=[[0,0.5],[1,0.5]];portConstraint=eastwest;" vertex="1" parent="YMwNeHdUEHDjdkbAeV3h-44">
          <mxGeometry y="28.786666870117188" width="135" height="29" as="geometry" />
        </mxCell>
        <mxCell id="YMwNeHdUEHDjdkbAeV3h-46" style="line;strokeWidth=1;fillColor=none;align=left;verticalAlign=middle;spacingTop=-1;spacingLeft=3;spacingRight=3;rotatable=0;labelPosition=right;points=[];portConstraint=eastwest;strokeColor=inherit;" vertex="1" parent="YMwNeHdUEHDjdkbAeV3h-44">
          <mxGeometry y="57.78666687011719" width="135" height="14" as="geometry" />
        </mxCell>
        <mxCell id="YMwNeHdUEHDjdkbAeV3h-47" value="implements" style="curved=1;startArrow=block;startSize=16;startFill=0;endArrow=none;exitX=1.0003086196051703;exitY=0.5007999877929687;entryX=0.28362068539327084;entryY=-0.0021589111170002835;rounded=0;" edge="1" parent="1" source="YMwNeHdUEHDjdkbAeV3h-1" target="YMwNeHdUEHDjdkbAeV3h-5">
          <mxGeometry relative="1" as="geometry">
            <Array as="points">
              <mxPoint x="2009" y="83" />
            </Array>
          </mxGeometry>
        </mxCell>
        <mxCell id="YMwNeHdUEHDjdkbAeV3h-48" value="implements" style="curved=1;startArrow=block;startSize=16;startFill=0;endArrow=none;exitX=1.0021414943247533;exitY=0.4961164900400106;entryX=-0.00023367694605176695;entryY=0.5006756653656831;rounded=0;" edge="1" parent="1" source="YMwNeHdUEHDjdkbAeV3h-13" target="YMwNeHdUEHDjdkbAeV3h-16">
          <mxGeometry relative="1" as="geometry">
            <Array as="points" />
          </mxGeometry>
        </mxCell>
        <mxCell id="YMwNeHdUEHDjdkbAeV3h-49" value="uses" style="curved=1;startArrow=none;endArrow=open;endSize=12;exitX=1.0014797281996113;exitY=0.5006756653656831;entryX=0.008251586060225897;entryY=-0.0021589111170002835;rounded=0;" edge="1" parent="1" source="YMwNeHdUEHDjdkbAeV3h-16" target="YMwNeHdUEHDjdkbAeV3h-5">
          <mxGeometry relative="1" as="geometry">
            <Array as="points">
              <mxPoint x="2009" y="269" />
            </Array>
          </mxGeometry>
        </mxCell>
        <mxCell id="YMwNeHdUEHDjdkbAeV3h-50" value="uses" style="curved=1;startArrow=diamondThin;startSize=14;startFill=0;endArrow=none;exitX=0.5;exitY=0;entryX=0.527;entryY=1.071;rounded=0;exitDx=0;exitDy=0;entryDx=0;entryDy=0;entryPerimeter=0;" edge="1" parent="1" source="YMwNeHdUEHDjdkbAeV3h-22" target="YMwNeHdUEHDjdkbAeV3h-15">
          <mxGeometry relative="1" as="geometry">
            <Array as="points">
              <mxPoint x="1520" y="190" />
            </Array>
          </mxGeometry>
        </mxCell>
        <mxCell id="YMwNeHdUEHDjdkbAeV3h-51" value="uses" style="curved=1;startArrow=none;endArrow=open;endSize=12;exitX=1;exitY=0.5;entryX=-0.0004242636940696023;entryY=0.5964143433076676;rounded=0;exitDx=0;exitDy=0;" edge="1" parent="1" source="YMwNeHdUEHDjdkbAeV3h-27" target="YMwNeHdUEHDjdkbAeV3h-5">
          <mxGeometry relative="1" as="geometry" />
        </mxCell>
        <mxCell id="YMwNeHdUEHDjdkbAeV3h-52" value="plays" style="curved=1;startArrow=none;endArrow=open;endSize=12;exitX=0;exitY=0.5;entryX=1;entryY=1;rounded=0;exitDx=0;exitDy=0;entryDx=0;entryDy=0;" edge="1" parent="1" source="YMwNeHdUEHDjdkbAeV3h-29" target="YMwNeHdUEHDjdkbAeV3h-22">
          <mxGeometry relative="1" as="geometry" />
        </mxCell>
        <mxCell id="YMwNeHdUEHDjdkbAeV3h-53" value="instantiates" style="curved=1;startArrow=none;endArrow=block;endSize=16;endFill=0;exitX=1.0066115324162255;exitY=0.5008333206176758;entryX=-0.00012079874674479167;entryY=0.8114809568964692;rounded=0;" edge="1" parent="1" source="YMwNeHdUEHDjdkbAeV3h-31" target="YMwNeHdUEHDjdkbAeV3h-22">
          <mxGeometry relative="1" as="geometry" />
        </mxCell>
        <mxCell id="YMwNeHdUEHDjdkbAeV3h-54" value="instantiates" style="curved=1;startArrow=none;endArrow=open;endSize=12;exitX=0.5;exitY=0;entryX=0.5;entryY=1;rounded=0;exitDx=0;exitDy=0;entryDx=0;entryDy=0;" edge="1" parent="1" source="YMwNeHdUEHDjdkbAeV3h-34" target="YMwNeHdUEHDjdkbAeV3h-31">
          <mxGeometry relative="1" as="geometry">
            <Array as="points" />
          </mxGeometry>
        </mxCell>
        <mxCell id="YMwNeHdUEHDjdkbAeV3h-55" value="draws from" style="curved=1;startArrow=none;endArrow=open;endSize=12;exitX=0;exitY=0.25;entryX=1;entryY=0.5;rounded=0;exitDx=0;exitDy=0;entryDx=0;entryDy=0;" edge="1" parent="1" source="YMwNeHdUEHDjdkbAeV3h-37" target="YMwNeHdUEHDjdkbAeV3h-35">
          <mxGeometry relative="1" as="geometry" />
        </mxCell>
        <mxCell id="YMwNeHdUEHDjdkbAeV3h-56" value="stores" style="curved=1;startArrow=none;endArrow=open;endSize=12;exitX=0;exitY=0.5;entryX=1;entryY=0.5;rounded=0;entryDx=0;entryDy=0;exitDx=0;exitDy=0;" edge="1" parent="1" source="YMwNeHdUEHDjdkbAeV3h-41" target="YMwNeHdUEHDjdkbAeV3h-38">
          <mxGeometry relative="1" as="geometry" />
        </mxCell>
        <mxCell id="YMwNeHdUEHDjdkbAeV3h-57" value="stores" style="curved=1;startArrow=none;endArrow=open;endSize=12;exitX=0;exitY=0.5;entryX=1;entryY=0.25;rounded=0;entryDx=0;entryDy=0;exitDx=0;exitDy=0;" edge="1" parent="1" source="YMwNeHdUEHDjdkbAeV3h-42" target="YMwNeHdUEHDjdkbAeV3h-34">
          <mxGeometry relative="1" as="geometry" />
        </mxCell>
        <mxCell id="YMwNeHdUEHDjdkbAeV3h-58" value="executes" style="curved=1;startArrow=diamondThin;startSize=14;startFill=0;endArrow=open;endSize=12;exitX=0.998168442275498;exitY=0.9080473087039284;entryX=0;entryY=0.5;rounded=0;entryDx=0;entryDy=0;" edge="1" parent="1" source="YMwNeHdUEHDjdkbAeV3h-40" target="YMwNeHdUEHDjdkbAeV3h-12">
          <mxGeometry relative="1" as="geometry" />
        </mxCell>
        <mxCell id="YMwNeHdUEHDjdkbAeV3h-59" value="executes" style="curved=1;startArrow=diamondThin;startSize=14;startFill=0;endArrow=open;endSize=12;exitX=0.9986419677734375;exitY=0.7217659074677243;rounded=0;strokeColor=default;entryX=0;entryY=0.5;entryDx=0;entryDy=0;" edge="1" parent="1" source="YMwNeHdUEHDjdkbAeV3h-44" target="YMwNeHdUEHDjdkbAeV3h-11">
          <mxGeometry relative="1" as="geometry">
            <mxPoint x="2000" y="460" as="targetPoint" />
          </mxGeometry>
        </mxCell>
        <mxCell id="YMwNeHdUEHDjdkbAeV3h-60" value="stores" style="curved=1;startArrow=none;endArrow=open;endSize=12;exitX=0;exitY=0.25;entryX=1;entryY=0.25;rounded=0;exitDx=0;exitDy=0;entryDx=0;entryDy=0;" edge="1" parent="1" source="YMwNeHdUEHDjdkbAeV3h-44" target="YMwNeHdUEHDjdkbAeV3h-40">
          <mxGeometry relative="1" as="geometry" />
        </mxCell>
      </root>
    </mxGraphModel>
  </diagram>
</mxfile>
